<?xml version="1.0" encoding="UTF-8" standalone="no"?>
<!DOCTYPE svg PUBLIC "-//W3C//DTD SVG 1.1//EN" "http://www.w3.org/Graphics/SVG/1.1/DTD/svg11.dtd">
<svg width="100%" height="100%" viewBox="0 0 1715 1801" version="1.1" xmlns="http://www.w3.org/2000/svg" xmlns:xlink="http://www.w3.org/1999/xlink" xml:space="preserve" xmlns:serif="http://www.serif.com/" style="fill-rule:evenodd;clip-rule:evenodd;stroke-linejoin:round;stroke-miterlimit:2;">
    <g transform="matrix(1,0,0,1,-17194,-979)">
        <g transform="matrix(1,0,0,1,11535,0)">
            <g transform="matrix(1,0,0,1,5239.22,-6.19977)">
                <g id="puddle">
                    <path d="M1076.97,1633.58C1074.41,1633.58 1071.83,1633.59 1069.23,1633.6C990.904,1633.93 894.355,1639.79 824.274,1662.13C702.321,1701.02 600.464,1792.39 574.677,1827.4C551.532,1858.83 527.879,1885.74 550.273,1942.25C572.668,1998.77 539.496,2035.78 527.625,2059.57C515.754,2083.37 332.519,2291.07 523.412,2348.03C714.304,2404.99 715.898,2479.39 729.052,2527.32C742.207,2575.26 745.244,2614.27 802.831,2657.61C860.418,2700.94 1017.77,2741.33 1107,2750.94C1196.23,2760.55 1456.19,2796 1620.68,2729.82C1750.52,2677.58 1919.19,2540.85 1904.63,2430.37C1896.36,2367.6 1892.27,2349.9 1898.05,2319.07C1909.21,2259.63 1927.32,2242.05 1955.93,2211.3C2021.59,2140.76 2124.01,2108.45 2061.37,2011.62C2031.32,1965.17 1993.37,1995.45 1952.19,1930.23L1112.73,1640.54L1076.97,1633.58Z" style="fill:var(--ps-puddle);"/>
                    <path d="M1077.26,1630.68C1088.93,1634.55 1101.81,1633.85 1113.49,1637.71C1240.05,1679.55 1365.6,1724.38 1491.66,1767.68L1953.65,1926.01C1955.46,1926.63 1956.3,1928.32 1956.46,1928.57C1957.5,1930.19 1958.98,1932.61 1963.27,1937.86C1995.11,1976.78 2021.96,1966.37 2049.92,1985.66C2059.47,1992.25 2067.15,2000.83 2076.08,2015.25C2087,2032.88 2093.78,2051.14 2093.75,2070.03C2093.75,2070.56 2093.67,2075.37 2092.57,2081.48C2082.46,2137.5 2013.98,2169.82 1967.2,2220.34C1942.95,2246.53 1929.83,2260.69 1920.21,2291.61C1916.43,2303.76 1912.11,2322.99 1911.07,2336.66C1909.47,2357.77 1913.65,2379.52 1920.31,2428.33C1930.83,2505.43 1863.94,2592.38 1772.41,2661.51C1750.05,2678.4 1726.67,2692.84 1722.57,2695.38C1707.05,2704.96 1670.01,2727.16 1625.41,2744.47C1515.22,2787.21 1363.4,2787.03 1221.79,2773.65C1185.86,2770.25 1162.4,2767.35 1103.84,2760.13C1014.72,2749.14 861.9,2707.97 802.133,2664.51C791.956,2657.1 783.476,2649.18 781.942,2647.75C752.371,2620.11 741.656,2594.34 733.705,2565.25C733.242,2563.55 733.104,2563.6 727.449,2544.18C723.392,2530.25 723.165,2530.32 720.161,2519.63C713.49,2495.88 706.686,2468.86 680.995,2442.49C660.678,2421.64 634.12,2406.55 608.995,2395.32C606.625,2394.26 581.336,2377.52 528.024,2356.61C517.906,2352.64 495.892,2345.05 475.887,2329.2C474.718,2328.27 460.341,2319.32 449.592,2303.43C410.41,2245.49 455.256,2161.26 494.503,2103.06C496.718,2099.77 497.955,2097.27 510.991,2077.46C519.755,2064.15 522.03,2060.73 523.781,2056.92C525.572,2053.02 529.763,2045.13 531.563,2042.1C546.269,2017.38 562.489,1987.17 545.64,1944.08C530.665,1905.78 534.917,1879.39 550.633,1853.4C555.099,1846.01 559.404,1840.07 571.262,1824.22C599.171,1786.93 703.34,1695.72 824.813,1658.07C909.017,1631.98 1025.79,1630.56 1077.26,1630.68ZM1076.59,1636.48C1021.4,1636.75 906.371,1639.26 823.988,1666.13C704.116,1705.23 603.922,1795.4 578.407,1830.16C554.51,1862.72 533.76,1887.01 554.906,1940.43C573.795,1988.15 555.341,2022.25 540.521,2047.41C537.49,2052.55 536.474,2053.26 531.541,2062C528.057,2068.17 515.788,2082.58 499.425,2104.8C499.421,2104.8 492.979,2114.2 485.852,2125.64C413.655,2241.55 437.607,2296.72 478.405,2324.75C478.423,2324.77 485.816,2329.39 498.031,2334.03C512.675,2339.59 523.709,2341.5 536.542,2344.5C575.045,2353.52 601.887,2362.9 620.428,2370.48C621.045,2370.73 621.464,2370.9 627.728,2374.49C667.109,2397.09 696.005,2423.01 713.356,2454.99C727.717,2481.46 730.368,2505.13 735.469,2526.78C738.242,2538.56 742.364,2558.54 743.506,2562.51C752.471,2593.72 764.94,2622.38 806.401,2652.86C863.233,2694.63 1018.28,2732.82 1108.02,2741.49C1190.32,2749.45 1412.97,2776.76 1573.36,2730.07C1593.53,2724.2 1624.28,2714.14 1671.1,2688.18C1709.9,2666.66 1739.04,2645.16 1756.75,2631.53C1817.41,2584.88 1870.39,2526.74 1885.41,2472.67C1891.97,2449.03 1889.16,2433.94 1888.23,2426.7C1880.56,2366.82 1876.73,2348.31 1883.37,2314.82C1895.68,2252.74 1915.81,2232.79 1945.4,2201.47C1990.15,2154.12 2048,2125.32 2063.93,2086.79C2067.49,2078.16 2067.8,2071.25 2068.03,2068.03C2068.62,2059.62 2067.98,2042.97 2052.46,2016.7C2036.59,1989.81 2016.97,1991.04 1992.56,1977.95C1978.8,1970.58 1965.11,1959.31 1951.8,1937.93C1951.57,1937.57 1951.56,1937.58 1948.88,1933.41L1948.97,1933.36L1487.21,1773.4C1362.14,1730.03 1237.55,1685.24 1111.97,1643.36C1100.57,1639.56 1088,1640.24 1076.59,1636.48Z" style="fill:var(--ps-puddle);"/>
                </g>
                <g id="outer-cup" transform="matrix(1,0,0,1,-2659.41,42.0162)">
                    <path d="M4456.88,1769.04C4456.25,1768.32 4439.55,1751.55 4415.7,1729.09C4568.57,1217.11 4064.12,1011.66 3840.17,1174.28C3901.36,1132.65 3924.39,1121.42 3958.79,1103.81C4016.39,1074.34 4078.16,1049.69 4136.6,1019.25C4259.19,955.381 4347.41,969.35 4398.46,974.576C4481.61,983.087 4567.43,1010.62 4606.25,1086.57C4607.39,1088.81 4608.66,1091.05 4609.93,1093.36C4621.23,1113.88 4646.08,1177.08 4612.66,1218.94C4588.65,1249.02 4550.04,1274.78 4519.31,1298C4475.84,1330.87 4530.79,1647.53 4542.77,1644.01C4547.53,1656.61 4552.83,1670.7 4556.36,1684.39C4559.14,1695.21 4568.89,1708.08 4581.72,1720.98C4610.45,1749.86 4654.56,1779.12 4666.9,1786.2C4666.82,1786.28 4666.78,1786.32 4666.78,1786.32C4666.78,1786.32 4667.61,1786.74 4669.1,1787.42C4673.15,1789.54 4677.11,1791.03 4680.76,1791.89C4692.42,1795.64 4709.23,1798.94 4722.7,1793.12C4745.75,1783.15 4743.64,1763.92 4742.59,1758.38C4737.09,1729.46 4725.32,1759.23 4715.05,1767.05C4709.4,1771.35 4706.06,1774.77 4700.14,1776.23C4696.63,1757.85 4677.64,1703.15 4658.77,1672.46C4654.48,1665.49 4649.74,1658.15 4644.77,1650.73C4645.06,1563.08 4649.09,1555.26 4652.87,1515.7C4655.83,1484.68 4670.24,1479.64 4676.84,1478.99C4697.94,1529.7 4732.46,1588.05 4765.19,1658.73C4795.17,1723.49 4796.29,1773.24 4770.34,1806.1C4744.56,1838.74 4704.97,1833.48 4654.17,1820.44C4643.88,1817.8 4635.26,1820.52 4629.25,1828.25C4607.86,1855.77 4589.52,1872.72 4551.11,1848.19C4495.93,1812.95 4462.49,1775.43 4456.88,1769.04Z" style="fill:var(--ps-cup-primary);"/>
                </g>
                <g id="inner-cup" transform="matrix(0.970796,0,0,1,-2561.56,-15.0758)">
                    <path d="M4113.79,1193.27C4320,1238.96 4458.96,1342.73 4475.08,1603.32C4487.63,1806.1 4346.85,1889.53 4221.93,1927.78C3998.9,1996.09 3717.58,1715.83 3717.58,1512.68C3717.58,1309.53 3909.7,1148.05 4113.79,1193.27Z" style="fill:var(--ps-foreground);"/>
                </g>
                <path id="cup-outer-shadow" d="M1897.51,1896.57C1927.35,1914.67 1941.02,1901.31 1952.23,1927.75C1964.69,1957.16 1993.96,1970.98 1993.96,1970.98C1948.31,1972.16 1902.51,1964.7 1860.65,1949.01C1848.08,2025.25 1613.82,2005.94 1451.08,1969.67C1288.34,1933.4 1207.47,1898.44 1139.91,1847.24C1074.89,1797.96 1137.09,1762.16 1141.88,1759.52C1142.07,1759.42 1142.16,1759.37 1142.16,1759.37L1152.95,1759.87C1161.46,1771.1 1170.55,1782.5 1180.23,1794.05C1263.3,1877.88 1339.88,1914.8 1412.5,1927.43C1581.65,1956.86 1704.33,1842.82 1730.45,1802.76C1737.97,1791.23 1750.59,1788.88 1758.01,1787.74C1758.09,1787.72 1758.17,1787.71 1758.25,1787.7L1767,1788.1C1770.78,1788.96 1774.41,1790.62 1777.81,1792.76C1786.38,1798.13 1793.43,1806.45 1797.47,1811.05C1803.09,1817.45 1841.54,1862.61 1897.51,1896.57ZM1803.96,1808.93L1826.63,1828.26C1820.57,1827.11 1813.13,1821.17 1803.96,1808.93Z" style="fill:var(--ps-shadow)"/>
                <g id="cup-inner-shadow" transform="matrix(1.79694,0,0,2.23853,-31231.4,-2333.04)">
                    <path d="M17974.7,1643.75C17993.3,1613.55 18027.9,1588.02 18063.4,1573.62C18081.2,1566.4 18095.7,1563.54 18115.7,1561.24C18146.5,1557.7 18166.8,1558.53 18187.2,1563.14C18235.4,1574.04 18282.9,1587.71 18323.4,1624.12C18350.8,1648.75 18375.8,1687.28 18378,1752.15C18379.1,1783.23 18372.6,1807.52 18361.2,1826.8C18357,1827.46 18352.9,1828.06 18348.6,1828.59C18331.7,1830.74 18314.4,1831.85 18296.7,1831.85C18153.5,1831.85 18030.7,1758.61 17979.8,1654.8C17978,1651.15 17976.3,1647.47 17974.7,1643.75Z" style="fill:var(--ps-cup-inner-shadow);"/>
                </g>
                <g id="small-puddle" transform="matrix(1,0,0,1,-2659.41,42.0162)">
                    <path d="M4116.11,1693.09C4117.22,1697.4 4118.29,1705.06 4118.88,1710.32C4123.86,1754.88 4071.84,1748.03 4044.76,1757.34C3989.64,1776.27 3975.89,1894.14 4113.96,1824.23C4152.59,1804.67 4143.34,1789.71 4139.31,1759.66C4136.76,1740.63 4185.31,1727.37 4226.76,1716.79C4192.16,1713.93 4150.96,1705.8 4116.11,1693.09Z" style="fill:var(--ps-small-puddle);"/>
                    <path d="M4007.71,1826.44C4002.21,1812.25 4006.69,1793.06 4017.67,1778.09C4006.74,1793.04 4002.23,1812.25 4007.71,1826.44ZM4041.89,1758.42C4032.16,1762.51 4023.87,1769.63 4017.67,1778.09C4023.82,1769.68 4032,1762.62 4041.57,1758.56C4041.68,1758.51 4041.78,1758.47 4041.89,1758.42ZM4041.89,1758.42C4047.73,1755.97 4055.08,1754.52 4062.91,1753.22C4055.12,1754.52 4047.79,1755.98 4041.89,1758.42ZM4104.09,1742.7C4092.86,1749.05 4077.1,1750.88 4062.91,1753.22C4077.14,1750.85 4092.88,1749.02 4104.09,1742.7ZM4104.09,1742.7C4114.32,1736.92 4120.79,1727.4 4118.88,1710.32C4120.79,1727.42 4114.33,1736.93 4104.09,1742.7ZM4116.11,1693.09C4118.68,1694.01 4124.8,1696.25 4133.97,1699.05C4124.44,1696.15 4118.47,1693.94 4116.93,1693.38L4116.11,1693.09ZM4173.51,1709.05C4157.23,1705.71 4143.84,1702.06 4133.97,1699.05C4143.73,1702.02 4157.21,1705.7 4173.51,1709.05ZM4173.51,1709.05C4181.58,1710.7 4190.36,1712.28 4199.78,1713.67C4190.4,1712.3 4181.61,1710.71 4173.51,1709.05ZM4199.85,1713.68C4200.11,1713.72 4200.38,1713.76 4200.65,1713.8C4201.12,1713.87 4212.11,1714.98 4225.24,1715.48C4226.09,1715.52 4227.04,1715.48 4227.45,1715.74C4228.29,1716.28 4228.23,1717.68 4227.08,1718.03C4223.6,1719.08 4202.48,1725.47 4184.02,1732.37C4178.89,1734.29 4178.94,1734.39 4177,1735.03C4154.23,1742.57 4148.17,1748.1 4146.57,1749.5C4140.31,1754.96 4141.4,1758.96 4141.67,1761.45C4142.1,1765.38 4142.7,1769.75 4143.06,1772.43C4143.4,1774.98 4146.92,1786.1 4145.76,1795.7C4144.8,1803.62 4141.21,1808.31 4139.61,1810.33C4132.74,1819.01 4121.58,1825.19 4114.34,1829.02C4113.83,1829.28 4113.62,1829.39 4107.59,1831.37C4095.78,1835.23 4088.05,1836.98 4087.71,1837.09C4087.23,1837.24 4081.85,1839.18 4072.84,1841.57C4070.06,1842.31 4065.13,1843.62 4055.71,1845.08C4056.39,1844.98 4057.08,1844.86 4057.78,1844.74C4059.37,1844.46 4067.74,1842.66 4076.93,1839.28C4081.48,1837.6 4085.2,1836.02 4086.7,1835.38C4087.02,1835.24 4096.02,1830.55 4108.86,1822C4109.69,1821.44 4109.81,1821.32 4110.36,1821.06C4123.24,1814.96 4132.5,1809.13 4137.34,1800.7C4141.44,1793.56 4141.06,1785.65 4139.85,1774.2C4139.69,1772.66 4139.61,1772.67 4138.68,1768.03C4136.76,1758.48 4136.93,1758.1 4137.05,1756.76C4137.95,1746.17 4151.76,1738.09 4163.61,1732.55C4165.32,1731.74 4173.3,1728.33 4176.3,1727.42C4186.91,1724.19 4196.8,1721.73 4219.44,1717.02C4207.8,1715.3 4203.69,1714.25 4199.85,1713.68ZM4007.71,1826.44C4012.5,1838.79 4024.85,1847.35 4047.07,1846.03C4024.82,1847.36 4012.48,1838.79 4007.71,1826.44Z" style="fill:var(--ps-small-puddle-detail);"/>
                </g>
                <g id="back-of-cup" transform="matrix(0.798529,0,0,0.803637,-13158,260.65)">
                    <path d="M18681.1,1483.93C18678.6,1484.01 18676.2,1484.05 18673.7,1484.05C18545.7,1484.05 18441.9,1375.59 18441.9,1242.01C18441.9,1228.26 18443,1214.78 18445.1,1201.65C18564.8,1251.44 18654.7,1356.5 18681.1,1483.93Z" style="fill:var(--ps-cup-inner-shadow);"/>
                </g>
                <g id="inner-puddle-shadow" transform="matrix(1,0,0,1,-2659.41,42.0162)">
                    <path d="M4438.98,1584.37C4447.07,1513.25 4416.26,1401.05 4415.57,1400.45C4415.06,1396.42 4354.52,1372.76 4303.14,1403.4C4238.39,1455.75 4236.95,1464.23 4213.7,1481.59C4190.19,1499.14 4130.63,1519.26 4109.23,1590.93C4090.47,1653.77 4108.53,1663.84 4116.44,1694.58C4151.29,1707.29 4187.65,1716.57 4222.25,1719.43C4246.28,1713.3 4283.62,1700.9 4297.74,1692.34C4336,1669.15 4415,1627.83 4438.98,1584.37Z"/>
                    <path d="M4109.23,1590.93C4116.93,1565.22 4129.44,1546.2 4143.46,1531.54C4159.42,1514.82 4177.29,1503.78 4192.11,1495.03C4200.8,1489.89 4208.5,1485.5 4214.24,1481.18C4236.8,1464.23 4238.9,1455.45 4301.63,1404.62C4302.65,1403.79 4302.6,1403.71 4303.74,1403.04C4353.58,1373.77 4411.77,1395.19 4415.39,1400.08C4415.48,1400.2 4415.54,1400.31 4415.56,1400.41C4415.56,1400.43 4415.82,1400.96 4416.93,1404.98C4417.92,1408.52 4419.29,1413.8 4420.86,1420.28C4422.06,1425.21 4423.53,1431.51 4425.13,1438.84C4425.76,1441.73 4426.39,1444.71 4427.02,1447.76C4431.35,1468.72 4434.34,1487.04 4436.36,1502.87C4436.89,1506.92 4437.37,1511.02 4437.81,1515.12C4439.76,1533.38 4440.35,1547.76 4440.33,1558.74C4440.33,1572.58 4439.37,1580.62 4439.07,1583.53L4438.98,1584.37C4437.34,1587.26 4434.61,1591.94 4429.45,1598.3C4424.38,1604.58 4417.28,1612.07 4406.97,1620.91C4405.61,1622.07 4404.2,1623.26 4402.73,1624.47C4395.86,1630.13 4388.49,1635.65 4380.91,1640.99C4379.01,1642.33 4377.04,1643.69 4375.01,1645.08C4366.12,1651.14 4357.11,1656.89 4348.26,1662.33C4336.06,1669.84 4324.23,1676.73 4313.86,1682.8C4309.75,1685.2 4305.79,1687.53 4302.03,1689.77C4300.6,1690.63 4299.26,1691.46 4297.81,1692.3C4297.79,1692.32 4297.76,1692.33 4297.74,1692.34C4295.97,1693.41 4293.86,1694.53 4291.47,1695.69C4289.02,1696.88 4286.07,1698.22 4282.26,1699.79C4279.33,1701 4276.21,1702.23 4272.95,1703.45C4266.69,1705.81 4260.35,1708 4254.38,1709.96C4246.37,1712.59 4238.32,1715.04 4231.03,1717.08C4227.07,1718.19 4224.23,1718.94 4222.96,1719.26C4222.73,1719.33 4222.49,1719.4 4222.25,1719.43C4222.1,1719.45 4221.95,1719.43 4221.8,1719.41C4220.39,1719.31 4216.23,1718.87 4215.75,1718.82C4215.75,1718.82 4215.74,1718.82 4215.74,1718.82C4186.16,1715.72 4155.16,1708.08 4124.64,1697.49C4122.24,1696.66 4119.93,1695.84 4118.08,1695.17C4118.07,1695.17 4118.07,1695.17 4118.07,1695.17C4117.53,1694.97 4116.91,1694.91 4116.44,1694.58C4116.27,1694.46 4116.3,1694.21 4116.28,1693.99C4116.2,1693.7 4116.1,1693.29 4115.95,1692.76C4113.64,1684.42 4110.59,1677.55 4107.84,1670.52C4104.23,1661.33 4101.13,1651.8 4101.01,1638.25C4100.9,1626.38 4103.09,1611.45 4109.23,1590.93Z" style="fill:var(--ps-shadow);"/>
                </g>
                <g id="cup-shadows" transform="matrix(1,0,0,1,-2659.41,42.0162)">
                    <path d="M4401.57,1750.36C4400.21,1746.55 4400.58,1741.97 4403.34,1736.19C4407.91,1726.62 4467.21,1630.64 4452.12,1496.03C4433.58,1330.65 4475.84,1330.87 4519.31,1298C4550.04,1274.78 4588.65,1249.02 4612.66,1218.94C4646.08,1177.08 4621.23,1113.88 4609.93,1093.36C4608.66,1091.05 4607.39,1088.81 4606.25,1086.57C4567.43,1010.62 4481.77,981.369 4398.46,974.576C4348.17,970.475 4260.69,957.609 4136.6,1019.25C4077.59,1048.56 4017.2,1083.79 3957.92,1109.71C3917.51,1127.38 3823.65,1178.99 3757.17,1255.73C3815.93,1155.53 3995.14,1060.99 4088.86,1013.81C4179.56,968.149 4336.44,942.88 4388.11,943.941C4439.93,945.006 4543.39,942.777 4633.06,1052.94C4722.71,1163.09 4689.89,1286 4665.63,1362.66C4656.12,1392.73 4661.05,1424.75 4674.12,1460.62C4693.98,1515.13 4732.59,1578.42 4768.97,1656.98C4799.65,1723.25 4799.96,1774.7 4781.37,1813.17C4762.75,1851.69 4725.09,1877.28 4679.46,1891.64C4642.9,1903.15 4600.79,1888.01 4562.85,1864.79C4535.39,1847.99 4510.12,1827 4490.78,1809.15C4470.44,1790.38 4456.65,1775.09 4453.74,1771.78C4449.88,1767.39 4442.59,1760.26 4435,1754.27C4422.45,1744.35 4401.95,1751.45 4401.57,1750.36ZM4504.53,1796.62C4509.82,1819.59 4527.27,1831.36 4549.98,1845.86C4588.4,1870.4 4607.86,1855.77 4629.25,1828.25C4635.26,1820.52 4643.88,1817.8 4654.17,1820.44C4704.97,1833.48 4747.67,1840.97 4770.34,1806.1C4793.2,1770.92 4788.72,1725.99 4760.15,1659.68C4729.33,1588.15 4692.42,1521.46 4677.93,1493.75C4670.51,1479.56 4655.83,1484.68 4652.87,1515.7C4649.09,1555.26 4644.33,1606.43 4655.12,1648.31C4666.06,1690.82 4692.11,1726.16 4703.62,1774.26C4709.55,1772.8 4709.4,1771.35 4715.05,1767.05C4725.32,1759.23 4737.09,1729.46 4742.59,1758.38C4743.64,1763.92 4745.75,1783.15 4722.7,1793.12C4709.23,1798.94 4692.42,1795.64 4680.76,1791.89C4675.64,1790.24 4671.51,1788.51 4669.1,1787.42C4668.62,1787.17 4668.15,1786.91 4667.66,1786.64C4667.42,1786.51 4667.17,1786.36 4666.9,1786.2C4654.56,1779.12 4610.45,1749.86 4581.72,1720.98C4568.89,1708.08 4559.14,1692.56 4553.45,1682.95C4546.04,1670.43 4533.87,1650.03 4525.11,1651.54C4516.36,1653.06 4504.66,1660.11 4500.92,1692.02C4495.45,1738.74 4498.54,1770.57 4504.53,1796.62ZM4696.05,1776.88C4692.75,1759.16 4673.88,1704.98 4655.22,1674.64C4634.92,1641.64 4604.5,1600.52 4586.91,1580.3C4580.48,1572.9 4575.22,1570.63 4571.09,1570.79C4565.37,1571.02 4562.23,1575.91 4562.23,1575.91C4562.16,1576.03 4562.08,1576.13 4561.99,1576.23C4561.99,1576.23 4543.9,1595.23 4537.04,1603.72C4536.44,1604.45 4536.21,1605.5 4536.14,1606.8C4536.01,1609.35 4536.59,1612.66 4537.64,1616.58C4541.96,1632.83 4554.43,1675.31 4587.46,1716.42C4613.26,1748.54 4658.66,1776.84 4669.69,1783C4669.91,1783.12 4670.14,1783.25 4670.35,1783.36C4677.58,1787.28 4684.5,1789.11 4689.61,1788.49C4691.85,1788.22 4693.7,1787.48 4694.92,1786.12C4696.13,1784.79 4696.67,1782.88 4696.53,1780.44C4696.48,1779.51 4696.31,1778.32 4696.05,1776.88Z" style="fill:var(--ps-cup-secondary);"/>
                </g>
                <g id="cup-rim" transform="matrix(0.970796,0,0,1,-2561.56,-15.0758)">
                    <path d="M4132.15,1181.17C4221.29,1205.57 4309.3,1236.17 4384.23,1317.68C4434.89,1372.8 4481.23,1459.06 4485.41,1604.27C4489.48,1745.46 4435.54,1824.1 4365.78,1873.36C4345.36,1887.79 4322.36,1899.35 4318.42,1901.33C4309.51,1905.81 4285.01,1918.02 4238.59,1934.52C4209.62,1944.81 4147.81,1961.3 4058.68,1934.57C3895.78,1885.71 3741.74,1715.8 3712.73,1544.9C3707.28,1512.82 3700.93,1453.46 3728.62,1383.9C3759.35,1306.68 3830.1,1240.35 3903,1204.62C3935.95,1188.48 3962.73,1182.06 3999.75,1176.91C4056.8,1168.98 4094.48,1170.86 4132.15,1181.17ZM4110.92,1205.44C4110.54,1205.35 4110.18,1205.29 4109.78,1205.2C3993.12,1178.83 3875.32,1223.26 3802.06,1303.5C3779.66,1328.03 3717.78,1402.9 3726.63,1516.2C3740.18,1689.57 3896.14,1873.26 4063.63,1923.65C4159.27,1952.43 4223.64,1925.03 4241.9,1917.92C4284.75,1901.25 4327.78,1881.71 4366.03,1851.47C4431.19,1799.96 4469.89,1723.61 4464.73,1602.16C4454.05,1350.99 4315.83,1250.82 4114.49,1206.24C4114.49,1206.24 4111.7,1205.61 4110.92,1205.44Z" style="fill:var(--ps-cup-primary);"/>
                </g>
                <g id="cup-handle-highlight" transform="matrix(1,0,0,1,-16777.4,8.0721)">
                    <path d="M18866.1,1769.96C18865.6,1769.89 18862.8,1769.46 18860.8,1766.81C18860.5,1766.4 18858.8,1764.1 18859.4,1760.6C18861.3,1748.04 18851,1712.27 18819.3,1646.35C18811.3,1629.74 18806.1,1619.99 18804.9,1617.74C18795.7,1600.68 18791.7,1593.99 18791.6,1593.78C18791.4,1593.17 18791.1,1592.59 18791,1591.95C18790.8,1589.97 18791.8,1588.62 18792,1588.39C18793.2,1586.75 18795,1586.54 18795.3,1586.5C18795.6,1586.46 18797.3,1586.25 18798.9,1587.47C18800,1588.37 18799.9,1588.49 18800.6,1589.76C18808,1602.96 18810.7,1608.2 18821.1,1627.18C18868.3,1713.33 18877.1,1747.02 18875.2,1762.92C18875.1,1763.43 18874.8,1766.41 18872,1768.47C18871.6,1768.76 18869.3,1770.46 18866.1,1769.96Z" style="fill:white;"/>
                </g>
                <g id="cup-highlight" transform="matrix(0.518719,-0.0816599,0.115796,0.735556,-8065.6,1768.67)">
                    <path d="M18420,1036.96C18521.2,1036.96 18667.2,1059.43 18667.2,1076.05C18667.2,1092.66 18556.3,1067.45 18455.1,1067.45C18354,1067.45 18150.6,1096.98 18150.6,1080.37C18150.6,1063.75 18318.9,1036.96 18420,1036.96Z" style="fill:white;"/>
                </g>
                <g id="small-puddle-highlight" transform="matrix(-0.0993333,0.0327173,-0.129733,-0.393885,3372.7,1687.13)">
                    <path d="M18477,1048.18C18577.1,1051.75 18783.2,1068.57 18783.2,1085.18C18783.2,1101.8 18651.8,1081.44 18449.5,1079.51C18331,1078.38 18194.3,1038.11 18477,1048.18Z" style="fill:white;"/>
                </g>
                <g id="puddle-highlight" transform="matrix(1,0,0,1,-16767.2,22.0632)">
                    <path d="M17955.1,2709.24C17945.4,2707.25 17936.4,2692.48 17951.6,2687.92C18014.8,2668.87 18145.3,2726.97 18344.4,2651.06C18483.4,2598.08 18611.7,2489.62 18636.5,2405.01C18642.8,2383.82 18658.5,2383.83 18662.2,2399.02C18670.9,2435.15 18658.6,2504.85 18513.6,2609.58C18440,2662.75 18343.2,2709.5 18249,2719.82C18108.9,2735.17 18060.1,2730.89 17955.1,2709.24Z" style="fill:white;"/>
                </g>
                <g id="text-warp" transform="matrix(1,0,0,1,-5238.57,6.19977)">
                    <g transform="matrix(4.30607,0,0,4.30607,-21679.9,-7167.02)">
                        <g id="text-warp1" serif:id="text-warp">
                            <g transform="matrix(50,0,0,50,6393.58,2188.85)">
                                <path d="M0.205,-1.2L0.018,-1.017L-0.12,-0.905C-0.151,-0.89 -0.182,-0.891 -0.214,-0.906C-0.238,-0.917 -0.257,-0.935 -0.245,-0.964L-0.136,-1.091L0.677,-1.873L0.809,-1.979L0.918,-2.004L1.047,-1.977C1.121,-1.948 1.161,-1.897 1.151,-1.815C1.137,-1.711 1.036,-1.6 0.97,-1.535C0.763,-1.333 0.597,-1.258 0.561,-1.241C0.451,-1.192 0.324,-1.16 0.205,-1.2ZM0.471,-1.432C0.519,-1.411 0.573,-1.423 0.619,-1.44L0.772,-1.537L0.833,-1.63C0.839,-1.661 0.821,-1.68 0.794,-1.691L0.716,-1.699L0.452,-1.442L0.471,-1.432Z" style="fill:white;fill-rule:nonzero;stroke:var(--ps-puddle);stroke-width:0.04px;"/>
                            </g>
                            <g transform="matrix(50,0,0,50,6418.43,2188.85)">
                                <path d="M0.258,-0.835L0.195,-0.769L0.053,-0.647C0.02,-0.63 -0.015,-0.628 -0.051,-0.639L-0.295,-0.711C-0.32,-0.718 -0.347,-0.733 -0.336,-0.764L-0.233,-0.892L0.618,-1.753L0.75,-1.864C0.78,-1.88 0.812,-1.883 0.844,-1.871L0.866,-1.862C0.887,-1.854 0.913,-1.839 0.903,-1.811L0.805,-1.694L0.134,-1.036L0.309,-1.006C0.328,-1.003 0.369,-0.995 0.358,-0.963L0.258,-0.835Z" style="fill:white;fill-rule:nonzero;stroke:var(--ps-puddle);stroke-width:0.04px;"/>
                            </g>
                            <g transform="matrix(50,0,0,50,6440.88,2188.85)">
                                <path d="M0.674,-1.23L0.887,-1.462L1.007,-1.572C1.035,-1.588 1.065,-1.587 1.095,-1.576L1.104,-1.573C1.126,-1.564 1.144,-1.549 1.136,-1.522L1.053,-1.408L0.924,-1.27L0.562,-0.911L0.231,-0.63C0.147,-0.566 0.046,-0.497 -0.053,-0.457C-0.108,-0.435 -0.188,-0.411 -0.248,-0.44C-0.329,-0.478 -0.276,-0.607 -0.254,-0.655C-0.192,-0.796 -0.083,-0.946 0.01,-1.064L0.445,-1.546L0.55,-1.649L0.64,-1.721L0.698,-1.716L0.78,-1.666C0.797,-1.655 0.811,-1.64 0.802,-1.618L0.719,-1.521L0.602,-1.404C0.563,-1.364 0.096,-0.888 0.181,-0.85C0.269,-0.81 0.64,-1.194 0.674,-1.23Z" style="fill:white;fill-rule:nonzero;stroke:var(--ps-puddle);stroke-width:0.04px;"/>
                            </g>
                            <g transform="matrix(50,0,0,50,6470.83,2188.85)">
                                <path d="M-0.482,-0.316L-0.519,-0.338L-0.531,-0.372L-0.485,-0.434C-0.19,-0.757 0.106,-1.079 0.402,-1.401L0.512,-1.499L0.599,-1.513L0.676,-1.491C0.804,-1.441 0.875,-1.338 0.853,-1.198C0.846,-1.153 0.82,-0.982 0.57,-0.707L0.333,-0.494L0.065,-0.338C-0.026,-0.297 -0.12,-0.273 -0.219,-0.268C-0.311,-0.263 -0.399,-0.277 -0.482,-0.316ZM0.006,-0.645C0.066,-0.618 0.13,-0.624 0.19,-0.646C0.27,-0.675 0.341,-0.736 0.397,-0.797C0.444,-0.848 0.502,-0.922 0.507,-0.997C0.512,-1.061 0.478,-1.101 0.423,-1.127L-0.021,-0.662L0.006,-0.645Z" style="fill:white;fill-rule:nonzero;stroke:var(--ps-puddle);stroke-width:0.04px;"/>
                            </g>
                            <g transform="matrix(50,0,0,50,6501.13,2188.85)">
                                <path d="M-0.044,-0.481L0.081,-0.445L0.367,-0.861L-0.044,-0.481ZM0.734,-1.081L0.118,-0.1L0.002,0.045C-0.035,0.074 -0.079,0.086 -0.124,0.088C-0.162,0.09 -0.228,0.098 -0.235,0.061L-0.167,-0.082L-0.095,-0.188L-0.291,-0.244L-0.383,-0.159L-0.531,-0.045C-0.564,-0.032 -0.59,-0.045 -0.61,-0.072L-0.629,-0.094C-0.649,-0.121 -0.655,-0.151 -0.638,-0.182L-0.512,-0.314C-0.175,-0.605 0.162,-0.896 0.499,-1.187L0.645,-1.292C0.679,-1.306 0.711,-1.303 0.743,-1.288C0.768,-1.277 0.803,-1.256 0.801,-1.222L0.734,-1.081Z" style="fill:white;fill-rule:nonzero;stroke:var(--ps-puddle);stroke-width:0.04px;"/>
                            </g>
                            <g transform="matrix(50,0,0,50,6531.83,2188.85)">
                                <path d="M-0.47,-0.132L-0.356,-0.185C-0.331,-0.184 -0.324,-0.134 -0.323,-0.124C-0.318,-0.091 -0.303,-0.061 -0.271,-0.046C-0.229,-0.028 -0.184,-0.035 -0.144,-0.05C-0.09,-0.071 -0.046,-0.107 -0.009,-0.151L0.019,-0.215L-0.002,-0.271L-0.049,-0.324L-0.091,-0.393L-0.106,-0.481L-0.066,-0.605L0.051,-0.769L0.25,-0.945L0.449,-1.042L0.619,-1.071L0.753,-1.05L0.835,-0.997C0.856,-0.973 0.86,-0.946 0.846,-0.917L0.738,-0.797L0.701,-0.764L0.596,-0.688L0.544,-0.719L0.489,-0.763C0.45,-0.779 0.408,-0.776 0.369,-0.763C0.321,-0.747 0.282,-0.719 0.25,-0.682C0.231,-0.659 0.214,-0.629 0.229,-0.599L0.287,-0.522L0.354,-0.429C0.377,-0.381 0.359,-0.312 0.343,-0.267C0.312,-0.178 0.241,-0.082 0.182,-0.012C0.084,0.106 -0.035,0.203 -0.179,0.262C-0.277,0.301 -0.403,0.333 -0.508,0.283C-0.596,0.241 -0.625,0.155 -0.617,0.058L-0.579,-0.043L-0.47,-0.132Z" style="fill:white;fill-rule:nonzero;stroke:var(--ps-puddle);stroke-width:0.04px;"/>
                            </g>
                            <g transform="matrix(50,0,0,50,6558.83,2188.85)">
                                <path d="M0.402,-0.477L-0.328,0.376L-0.47,0.511C-0.505,0.528 -0.537,0.52 -0.565,0.497L-0.573,0.49C-0.601,0.468 -0.618,0.44 -0.607,0.404L-0.499,0.243L0.165,-0.551L0.097,-0.575C0.071,-0.583 0.044,-0.599 0.05,-0.631L0.133,-0.769L0.248,-0.891C0.279,-0.91 0.313,-0.912 0.347,-0.904L0.741,-0.803C0.768,-0.797 0.801,-0.783 0.794,-0.747L0.702,-0.602L0.57,-0.468C0.536,-0.448 0.5,-0.447 0.463,-0.459L0.402,-0.477Z" style="fill:white;fill-rule:nonzero;stroke:var(--ps-puddle);stroke-width:0.04px;"/>
                            </g>
                            <g transform="matrix(50,0,0,50,6582.28,2188.85)">
                                <path d="M0.386,-0.174L0.589,-0.45L0.706,-0.582C0.737,-0.602 0.771,-0.6 0.804,-0.587L0.814,-0.583C0.84,-0.573 0.863,-0.555 0.857,-0.523L0.781,-0.388L0.658,-0.223L0.307,0.206L-0.022,0.544C-0.106,0.62 -0.21,0.703 -0.315,0.752C-0.377,0.781 -0.46,0.807 -0.529,0.774C-0.622,0.73 -0.586,0.584 -0.567,0.517C-0.554,0.475 -0.506,0.311 -0.33,0.027C-0.3,-0.021 -0.157,-0.249 0.085,-0.548L0.187,-0.671L0.276,-0.756L0.342,-0.751L0.441,-0.692C0.46,-0.68 0.479,-0.661 0.472,-0.635L0.393,-0.519L0.28,-0.38C0.242,-0.332 -0.209,0.237 -0.109,0.281C-0.005,0.328 0.353,-0.131 0.386,-0.174Z" style="fill:white;fill-rule:nonzero;stroke:var(--ps-puddle);stroke-width:0.04px;"/>
                            </g>
                            <g transform="matrix(50,0,0,50,6612.23,2188.85)">
                                <path d="M0.719,-0.154C0.442,0.238 0.166,0.63 -0.111,1.022L-0.196,1.119L-0.274,1.129L-0.323,1.092L-0.301,0.99L-0.012,0.19L-0.407,0.793L-0.538,0.952C-0.573,0.978 -0.614,0.982 -0.656,0.972L-0.745,0.954C-0.772,0.948 -0.813,0.933 -0.807,0.895L-0.711,0.731C-0.419,0.345 -0.127,-0.042 0.165,-0.428L0.271,-0.54C0.298,-0.556 0.329,-0.552 0.357,-0.541C0.382,-0.532 0.407,-0.516 0.412,-0.486L0.391,-0.364L0.236,0.137L0.523,-0.302L0.637,-0.437C0.668,-0.457 0.699,-0.45 0.728,-0.43L0.767,-0.401C0.797,-0.381 0.817,-0.354 0.809,-0.317L0.719,-0.154Z" style="fill:white;fill-rule:nonzero;stroke:var(--ps-puddle);stroke-width:0.04px;"/>
                            </g>
                            <g transform="matrix(50,0,0,50,6641.63,2188.85)">
                                <path d="M-0.695,1.202L-0.741,1.175L-0.76,1.134L-0.719,1.056C-0.439,0.655 -0.16,0.254 0.12,-0.146L0.227,-0.267C0.256,-0.287 0.288,-0.293 0.323,-0.285L0.414,-0.259C0.571,-0.198 0.668,-0.072 0.668,0.099C0.669,0.38 0.473,0.67 0.444,0.714C0.373,0.819 0.295,0.89 0.202,0.974C0.118,1.051 0.025,1.117 -0.076,1.171C-0.173,1.222 -0.277,1.253 -0.387,1.26C-0.495,1.268 -0.598,1.249 -0.695,1.202ZM-0.196,0.79C-0.127,0.822 -0.056,0.818 0.013,0.788C0.1,0.75 0.17,0.674 0.222,0.599C0.27,0.53 0.319,0.44 0.312,0.35C0.305,0.273 0.261,0.223 0.193,0.192L-0.23,0.77L-0.196,0.79Z" style="fill:white;fill-rule:nonzero;stroke:var(--ps-puddle);stroke-width:0.04px;"/>
                            </g>
                        </g>
                    </g>
                </g>
            </g>
        </g>
    </g>
</svg>
