<?xml version="1.0" encoding="UTF-8" standalone="no"?>
<!DOCTYPE svg PUBLIC "-//W3C//DTD SVG 1.1//EN" "http://www.w3.org/Graphics/SVG/1.1/DTD/svg11.dtd">
<svg width="100%" height="100%" viewBox="0 0 1715 1801" version="1.1" xmlns="http://www.w3.org/2000/svg" xmlns:xlink="http://www.w3.org/1999/xlink" xml:space="preserve" xmlns:serif="http://www.serif.com/" style="fill-rule:evenodd;clip-rule:evenodd;stroke-linejoin:round;stroke-miterlimit:2;">
    <g transform="matrix(1,0,0,1,-17194,-979)">
        <g transform="matrix(1,0,0,1,11535,0)">
            <g transform="matrix(1,0,0,1,5239.22,-6.19977)">
                <g id="puddle">
                    <path d="M1076.97,1633.58C1074.41,1633.58 1071.83,1633.59 1069.23,1633.6C990.904,1633.93 894.355,1639.79 824.274,1662.13C702.321,1701.02 600.464,1792.39 574.677,1827.4C551.532,1858.83 527.879,1885.74 550.273,1942.25C572.668,1998.77 539.496,2035.78 527.625,2059.57C515.754,2083.37 332.519,2291.07 523.412,2348.03C714.304,2404.99 715.898,2479.39 729.052,2527.32C742.207,2575.26 745.244,2614.27 802.831,2657.61C860.418,2700.94 1017.77,2741.33 1107,2750.94C1196.23,2760.55 1456.19,2796 1620.68,2729.82C1750.52,2677.58 1919.19,2540.85 1904.63,2430.37C1896.36,2367.6 1892.27,2349.9 1898.05,2319.07C1909.21,2259.63 1927.32,2242.05 1955.93,2211.3C2021.59,2140.76 2124.01,2108.45 2061.37,2011.62C2031.32,1965.17 1993.37,1995.45 1952.19,1930.23L1112.73,1640.54L1076.97,1633.58Z" style="fill:var(--ps-puddle);"/>
                    <path d="M1077.26,1630.68C1088.93,1634.55 1101.81,1633.85 1113.49,1637.71C1240.05,1679.55 1365.6,1724.38 1491.66,1767.68L1953.65,1926.01C1955.46,1926.63 1956.3,1928.32 1956.46,1928.57C1957.5,1930.19 1958.98,1932.61 1963.27,1937.86C1995.11,1976.78 2021.96,1966.37 2049.92,1985.66C2059.47,1992.25 2067.15,2000.83 2076.08,2015.25C2087,2032.88 2093.78,2051.14 2093.75,2070.03C2093.75,2070.56 2093.67,2075.37 2092.57,2081.48C2082.46,2137.5 2013.98,2169.82 1967.2,2220.34C1942.95,2246.53 1929.83,2260.69 1920.21,2291.61C1916.43,2303.76 1912.11,2322.99 1911.07,2336.66C1909.47,2357.77 1913.65,2379.52 1920.31,2428.33C1930.83,2505.43 1863.94,2592.38 1772.41,2661.51C1750.05,2678.4 1726.67,2692.84 1722.57,2695.38C1707.05,2704.96 1670.01,2727.16 1625.41,2744.47C1515.22,2787.21 1363.4,2787.03 1221.79,2773.65C1185.86,2770.25 1162.4,2767.35 1103.84,2760.13C1014.72,2749.14 861.9,2707.97 802.133,2664.51C791.956,2657.1 783.476,2649.18 781.942,2647.75C752.371,2620.11 741.656,2594.34 733.705,2565.25C733.242,2563.55 733.104,2563.6 727.449,2544.18C723.392,2530.25 723.165,2530.32 720.161,2519.63C713.49,2495.88 706.686,2468.86 680.995,2442.49C660.678,2421.64 634.12,2406.55 608.995,2395.32C606.625,2394.26 581.336,2377.52 528.024,2356.61C517.906,2352.64 495.892,2345.05 475.887,2329.2C474.718,2328.27 460.341,2319.32 449.592,2303.43C410.41,2245.49 455.256,2161.26 494.503,2103.06C496.718,2099.77 497.955,2097.27 510.991,2077.46C519.755,2064.15 522.03,2060.73 523.781,2056.92C525.572,2053.02 529.763,2045.13 531.563,2042.1C546.269,2017.38 562.489,1987.17 545.64,1944.08C530.665,1905.78 534.917,1879.39 550.633,1853.4C555.099,1846.01 559.404,1840.07 571.262,1824.22C599.171,1786.93 703.34,1695.72 824.813,1658.07C909.017,1631.98 1025.79,1630.56 1077.26,1630.68ZM1076.59,1636.48C1021.4,1636.75 906.371,1639.26 823.988,1666.13C704.116,1705.23 603.922,1795.4 578.407,1830.16C554.51,1862.72 533.76,1887.01 554.906,1940.43C573.795,1988.15 555.341,2022.25 540.521,2047.41C537.49,2052.55 536.474,2053.26 531.541,2062C528.057,2068.17 515.788,2082.58 499.425,2104.8C499.421,2104.8 492.979,2114.2 485.852,2125.64C413.655,2241.55 437.607,2296.72 478.405,2324.75C478.423,2324.77 485.816,2329.39 498.031,2334.03C512.675,2339.59 523.709,2341.5 536.542,2344.5C575.045,2353.52 601.887,2362.9 620.428,2370.48C621.045,2370.73 621.464,2370.9 627.728,2374.49C667.109,2397.09 696.005,2423.01 713.356,2454.99C727.717,2481.46 730.368,2505.13 735.469,2526.78C738.242,2538.56 742.364,2558.54 743.506,2562.51C752.471,2593.72 764.94,2622.38 806.401,2652.86C863.233,2694.63 1018.28,2732.82 1108.02,2741.49C1190.32,2749.45 1412.97,2776.76 1573.36,2730.07C1593.53,2724.2 1624.28,2714.14 1671.1,2688.18C1709.9,2666.66 1739.04,2645.16 1756.75,2631.53C1817.41,2584.88 1870.39,2526.74 1885.41,2472.67C1891.97,2449.03 1889.16,2433.94 1888.23,2426.7C1880.56,2366.82 1876.73,2348.31 1883.37,2314.82C1895.68,2252.74 1915.81,2232.79 1945.4,2201.47C1990.15,2154.12 2048,2125.32 2063.93,2086.79C2067.49,2078.16 2067.8,2071.25 2068.03,2068.03C2068.62,2059.62 2067.98,2042.97 2052.46,2016.7C2036.59,1989.81 2016.97,1991.04 1992.56,1977.95C1978.8,1970.58 1965.11,1959.31 1951.8,1937.93C1951.57,1937.57 1951.56,1937.58 1948.88,1933.41L1948.97,1933.36L1487.21,1773.4C1362.14,1730.03 1237.55,1685.24 1111.97,1643.36C1100.57,1639.56 1088,1640.24 1076.59,1636.48Z" style="fill:var(--ps-puddle-outline);"/>
                </g>
                <g id="outer-cup" transform="matrix(1,0,0,1,-2659.41,42.0162)">
                    <path d="M4456.88,1769.04C4456.25,1768.32 4439.55,1751.55 4415.7,1729.09C4568.57,1217.11 4042.39,1030.27 3818.44,1192.89C3879.63,1151.27 3924.39,1121.42 3958.79,1103.81C4016.39,1074.34 4076.6,1041.98 4135.03,1011.53C4257.62,947.67 4356.32,961.536 4407.37,966.761C4490.52,975.273 4577.51,1012.53 4616.32,1088.48C4617.47,1090.72 4651.51,1181.19 4618.08,1223.06C4594.07,1253.14 4552.47,1280.43 4521.74,1303.66C4478.27,1336.53 4530.79,1647.53 4542.77,1644.01C4547.53,1656.61 4576.1,1711.02 4588.93,1723.91C4617.67,1752.79 4696.31,1814.17 4699.76,1782.49C4702.59,1756.64 4669.52,1689.94 4658.77,1672.46C4654.48,1665.49 4649.74,1658.15 4644.77,1650.73C4645.06,1563.08 4649.09,1555.26 4652.87,1515.7C4655.83,1484.68 4670.24,1479.64 4676.84,1478.99C4697.94,1529.7 4732.46,1588.05 4765.19,1658.73C4795.17,1723.49 4793.94,1779.95 4767.99,1812.81C4742.21,1845.45 4705.28,1836.54 4654.48,1823.5C4644.19,1820.86 4636.94,1822.21 4630.94,1829.94C4609.54,1857.46 4589.52,1872.72 4551.11,1848.19C4495.93,1812.95 4462.49,1775.43 4456.88,1769.04Z" style="fill:var(--ps-cup-primary);"/>
                </g>
                <g id="inner-cup" transform="matrix(0.970796,0,0,1,-2561.56,-15.0758)">
                    <path d="M4113.79,1193.27C4320,1238.96 4458.96,1342.73 4475.08,1603.32C4487.63,1806.1 4346.85,1889.53 4221.93,1927.78C3998.9,1996.09 3717.58,1715.83 3717.58,1512.68C3717.58,1309.53 3909.7,1148.05 4113.79,1193.27Z" style="fill:var(--ps-cup-inside);"/>
                </g>
                <path id="cup-outer-shadow" d="M1897.51,1896.57C1927.35,1914.67 1945.39,1899.35 1956.59,1925.79C1969.06,1955.19 2004.27,1967.76 2004.27,1967.76C1958.62,1968.94 1902.51,1964.7 1860.65,1949.01C1848.08,2025.25 1613.82,2005.94 1451.08,1969.67C1288.34,1933.4 1207.47,1898.44 1139.91,1847.24C1074.89,1797.96 1137.09,1762.16 1141.88,1759.52C1142.07,1759.42 1142.16,1759.37 1142.16,1759.37L1152.95,1759.87C1161.46,1771.1 1170.55,1782.5 1180.23,1794.05C1263.3,1877.88 1339.88,1914.8 1412.5,1927.43C1581.65,1956.86 1704.33,1842.82 1730.45,1802.76C1737.97,1791.23 1750.59,1788.88 1758.01,1787.74C1758.09,1787.72 1758.17,1787.71 1758.25,1787.7L1767,1788.1C1770.78,1788.96 1774.41,1790.62 1777.81,1792.76C1786.38,1798.13 1793.43,1806.45 1797.47,1811.05C1803.09,1817.45 1841.54,1862.61 1897.51,1896.57ZM1803.96,1808.93L1826.63,1828.26C1820.57,1827.11 1813.13,1821.17 1803.96,1808.93Z" style="fill:var(--ps-shadow);"/>
                <g id="cup-inner-shadow" transform="matrix(1.79694,0,0,2.23853,-31231.4,-2333.04)">
                    <path d="M17983.2,1640.03C18001.8,1609.84 18032.9,1595.16 18066.9,1578.61C18153.8,1536.34 18291.1,1595.25 18325.8,1635.31C18415.1,1738.36 18352.9,1828.06 18348.6,1828.59C18331.7,1830.74 18314.4,1831.85 18296.7,1831.85C18153.5,1831.85 18030.7,1758.61 17979.8,1654.8C17978,1651.15 17979,1646.78 17983.2,1640.03Z" style="fill:var(--ps-cup-inner-shadow);"/>
                </g>
                <g id="small-puddle" transform="matrix(1,0,0,1,-2659.41,42.0162)">
                    <path d="M4116.11,1693.09C4117.22,1697.4 4118.29,1705.06 4118.88,1710.32C4123.86,1754.88 4071.84,1748.03 4044.76,1757.34C3989.64,1776.27 3975.89,1894.14 4113.96,1824.23C4152.59,1804.67 4143.34,1789.71 4139.31,1759.66C4136.76,1740.63 4185.31,1727.37 4226.76,1716.79C4192.16,1713.93 4150.96,1705.8 4116.11,1693.09Z" style="fill:var(--ps-puddle);"/>
                    <path d="M4199.78,1713.67C4201.28,1713.88 4202.04,1713.95 4202.39,1713.99C4220.2,1715.74 4226.56,1715.41 4227.24,1715.7C4228.2,1716.12 4228.25,1717.61 4227.07,1717.97C4194.87,1727.78 4177.89,1734.74 4177.85,1734.75C4160.35,1740.54 4150.42,1745.48 4145.13,1750.86C4140.5,1755.57 4141.44,1759.34 4141.59,1760.76C4142.04,1764.95 4142.66,1769.47 4143.06,1772.43C4143.4,1774.98 4146.92,1786.1 4145.76,1795.7C4144.83,1803.33 4141.46,1807.97 4139.81,1810.08C4133.28,1818.41 4123.37,1824.25 4114.34,1829.02C4114.33,1829.02 4100.58,1835.6 4084.82,1840.75C4056.73,1849.94 4041.09,1848.64 4040.4,1848.61C3990.99,1846.57 3995.76,1791.75 4026.99,1765.69C4037.69,1756.76 4048,1754.52 4055.64,1753.06C4084.04,1747.63 4122,1748.38 4117.99,1710.42C4116.87,1699.77 4115.67,1694.63 4115.36,1693.28C4115.36,1692.89 4115.27,1692.84 4115.54,1692.55C4115.72,1692.36 4116.05,1692.24 4116.38,1692.35C4121.83,1694.27 4150.91,1705.67 4194.54,1712.87C4195.19,1712.97 4195.78,1713.07 4196.33,1713.16C4175.81,1710.03 4162.35,1706.92 4158.13,1705.94C4138.15,1701.32 4124.75,1696.98 4117.2,1694.3C4117.75,1696.73 4118.76,1701.78 4119.76,1710.23C4124.98,1754.38 4074.94,1749.8 4047.79,1757.94C4043.82,1759.13 4029.6,1763.51 4017.89,1780.83C4002.84,1803.07 4001.91,1834.85 4028.89,1842.07C4031.16,1842.68 4040.84,1845.39 4058.25,1841.97C4059.08,1841.8 4065.59,1840.41 4072.47,1838.09C4091.58,1831.63 4108.38,1822 4110.36,1821.06C4117.46,1817.7 4130.48,1811.29 4136.16,1802.55C4138.95,1798.28 4141.29,1793.9 4140.51,1781.6C4140.33,1778.8 4140,1775.68 4139.85,1774.2C4139.69,1772.66 4139.61,1772.67 4138.68,1768.03C4136.76,1758.48 4136.93,1758.1 4137.05,1756.76C4137.95,1746.17 4151.76,1738.09 4163.61,1732.55C4165.32,1731.75 4173.3,1728.33 4176.3,1727.42C4186.3,1724.38 4196.76,1721.7 4219.78,1716.99C4208.43,1715.29 4202.34,1714.05 4199.78,1713.67ZM4199.78,1713.67C4198.9,1713.55 4197.77,1713.38 4196.33,1713.16C4197.46,1713.33 4198.61,1713.5 4199.78,1713.67Z" style="fill:var(--ps-puddle-outline);"/>
                </g>
                <g id="inner-puddle-shadow" transform="matrix(1,0,0,1,-2659.41,42.0162)">
                    <path d="M4438.98,1584.37C4447.07,1513.25 4416.26,1401.05 4415.57,1400.45C4415.06,1396.42 4354.52,1372.76 4303.14,1403.4C4238.39,1455.75 4236.95,1464.23 4213.7,1481.59C4190.19,1499.14 4130.63,1519.26 4109.23,1590.93C4090.47,1653.77 4108.53,1663.84 4116.44,1694.58C4151.29,1707.29 4187.65,1716.57 4222.25,1719.43C4246.28,1713.3 4283.62,1700.9 4297.74,1692.34C4336,1669.15 4415,1627.83 4438.98,1584.37Z" style="fill:var(--ps-shadow);"/>
                </g>
                <g id="cup-shadows" transform="matrix(1,0,0,1,-2659.41,42.0162)">
                    <path d="M4401.57,1750.36C4400.21,1746.55 4400.58,1741.97 4403.34,1736.19C4407.91,1726.62 4467.21,1630.64 4452.12,1496.03C4433.58,1330.65 4475.84,1330.87 4519.31,1298C4550.04,1274.78 4588.65,1249.02 4612.66,1218.94C4646.08,1177.08 4621.23,1113.88 4609.93,1093.36C4608.66,1091.05 4607.39,1088.81 4606.25,1086.57C4567.43,1010.62 4481.77,981.369 4398.46,974.576C4348.17,970.475 4260.69,957.609 4136.6,1019.25C4077.59,1048.56 4019.39,1086.84 3960.12,1112.76C3927.92,1126.84 3517.53,1333.52 3816.92,1705.58C3819.3,1708.54 3821.95,1733.54 3822.83,1737.31C3675.72,1590.67 3665.25,1430.76 3711.04,1325.26C3789.51,1144.43 4029.67,1043.6 4088.86,1013.81C4179.56,968.149 4336.44,942.88 4388.11,943.941C4439.93,945.006 4543.39,942.777 4633.06,1052.94C4722.71,1163.09 4689.89,1286 4665.63,1362.66C4656.12,1392.73 4661.05,1424.75 4674.12,1460.62C4693.98,1515.13 4732.59,1578.42 4768.97,1656.98C4799.65,1723.25 4799.96,1774.7 4781.37,1813.17C4762.75,1851.69 4725.09,1877.28 4679.46,1891.64C4642.9,1903.15 4600.79,1888.01 4562.85,1864.79C4535.39,1847.99 4510.12,1827 4490.78,1809.15C4470.44,1790.38 4456.65,1775.09 4453.74,1771.78C4449.88,1767.39 4442.59,1760.26 4435,1754.27C4422.45,1744.35 4401.95,1751.45 4401.57,1750.36ZM4504.53,1796.62C4509.82,1819.59 4527.27,1831.36 4549.98,1845.86C4588.4,1870.4 4607.86,1855.77 4629.25,1828.25C4635.26,1820.52 4643.88,1817.8 4654.17,1820.44C4704.97,1833.48 4747.67,1840.97 4770.34,1806.1C4793.2,1770.92 4788.72,1725.99 4760.15,1659.68C4729.33,1588.15 4692.42,1521.46 4677.93,1493.75C4670.51,1479.56 4655.83,1484.68 4652.87,1515.7C4649.09,1555.26 4644.33,1606.43 4655.12,1648.31C4666.06,1690.82 4692.11,1726.16 4703.62,1774.26C4709.55,1772.8 4709.4,1771.35 4715.05,1767.05C4725.32,1759.23 4737.09,1729.46 4742.59,1758.38C4743.64,1763.92 4745.75,1783.15 4722.7,1793.12C4709.23,1798.94 4692.42,1795.64 4680.76,1791.89C4675.64,1790.24 4671.51,1788.51 4669.1,1787.42C4668.62,1787.17 4668.15,1786.91 4667.66,1786.64C4667.42,1786.51 4667.17,1786.36 4666.9,1786.2C4654.56,1779.12 4610.45,1749.86 4581.72,1720.98C4568.89,1708.08 4559.14,1692.56 4553.45,1682.95C4546.04,1670.43 4533.87,1650.03 4525.11,1651.54C4516.36,1653.06 4504.66,1660.11 4500.92,1692.02C4495.45,1738.74 4498.54,1770.57 4504.53,1796.62ZM4696.05,1776.88C4692.75,1759.16 4673.88,1704.98 4655.22,1674.64C4634.92,1641.64 4604.5,1600.52 4586.91,1580.3C4580.48,1572.9 4575.22,1570.63 4571.09,1570.79C4565.37,1571.02 4562.23,1575.91 4562.23,1575.91C4562.16,1576.03 4562.08,1576.13 4561.99,1576.23C4561.99,1576.23 4543.9,1595.23 4537.04,1603.72C4536.44,1604.45 4536.21,1605.5 4536.14,1606.8C4536.01,1609.35 4536.59,1612.66 4537.64,1616.58C4541.96,1632.83 4554.43,1675.31 4587.46,1716.42C4613.26,1748.54 4658.66,1776.84 4669.69,1783C4669.91,1783.12 4670.14,1783.25 4670.35,1783.36C4677.58,1787.28 4684.5,1789.11 4689.61,1788.49C4691.85,1788.22 4693.7,1787.48 4694.92,1786.12C4696.13,1784.79 4696.67,1782.88 4696.53,1780.44C4696.48,1779.51 4696.31,1778.32 4696.05,1776.88Z" style="fill:var(--ps-cup-secondary);"/>
                </g>
                <g id="cup-handle-highlight" transform="matrix(1,0,0,1,-16777.4,8.0721)">
                    <path d="M18866.1,1769.96C18865.6,1769.89 18862.8,1769.46 18860.8,1766.81C18860.5,1766.4 18858.8,1764.1 18859.4,1760.6C18861.3,1748.04 18851,1712.27 18819.3,1646.35C18811.3,1629.74 18806.1,1619.99 18804.9,1617.74C18795.7,1600.68 18791.7,1593.99 18791.6,1593.78C18791.4,1593.17 18791.1,1592.59 18791,1591.95C18790.8,1589.97 18791.8,1588.62 18792,1588.39C18793.2,1586.75 18795,1586.54 18795.3,1586.5C18795.6,1586.46 18797.3,1586.25 18798.9,1587.47C18800,1588.37 18799.9,1588.49 18800.6,1589.76C18808,1602.96 18810.7,1608.2 18821.1,1627.18C18868.3,1713.33 18877.1,1747.02 18875.2,1762.92C18875.1,1763.43 18874.8,1766.41 18872,1768.47C18871.6,1768.76 18869.3,1770.46 18866.1,1769.96Z" style="fill:var(--ps-foreground);"/>
                </g>
                <g id="cup-highlight" transform="matrix(0.518719,-0.0816599,0.115796,0.735556,-8065.6,1768.67)">
                    <path d="M18420,1036.96C18521.2,1036.96 18667.2,1059.43 18667.2,1076.05C18667.2,1092.66 18556.3,1067.45 18455.1,1067.45C18354,1067.45 18150.6,1096.98 18150.6,1080.37C18150.6,1063.75 18318.9,1036.96 18420,1036.96Z" style="fill:var(--ps-foreground);"/>
                </g>
                <g id="small-puddle-highlight" transform="matrix(-0.0993333,0.0327173,-0.129733,-0.393885,3372.7,1687.13)">
                    <path d="M18477,1048.18C18577.1,1051.75 18783.2,1068.57 18783.2,1085.18C18783.2,1101.8 18651.8,1081.44 18449.5,1079.51C18331,1078.38 18194.3,1038.11 18477,1048.18Z" style="fill:var(--ps-foreground);"/>
                </g>
                <g id="cup-rim" transform="matrix(0.977575,0,0,1.00089,-2590.62,-17.2879)">
                    <path d="M4116.37,1182.22C4201.08,1201.06 4302.38,1234.5 4376.63,1312.03C4439.75,1377.94 4479.06,1470.84 4487.35,1602.6C4500.25,1807.6 4356.44,1906.76 4226.49,1939.43C4223.62,1940.15 4216.7,1942.49 4204.89,1945.02C4063.15,1975.35 3904.26,1880.36 3803.49,1753.02C3797.19,1745.07 3785.3,1729.22 3774.91,1713.25C3727.42,1640.25 3706.28,1569.92 3706.9,1512.68C3707.59,1449.17 3726.07,1402.86 3734.84,1382.4C3780.38,1276.19 3878.72,1197.3 3994.06,1178.75C4054.26,1169.07 4101.01,1178.91 4116.37,1182.22ZM4111.21,1204.32C4085,1198.57 4020.96,1186.73 3943.49,1213.17C3859.61,1241.81 3786.89,1307.01 3750.88,1393.71C3743.69,1411.01 3739.14,1428.23 3738.34,1431.29C3735.17,1443.29 3727.72,1473.52 3728.26,1513.25C3729.17,1579.68 3761.39,1653.56 3810.3,1720.19C3901.63,1844.63 4044.51,1935.64 4171.02,1924.98C4197.62,1922.73 4215.79,1916.58 4218.47,1915.86C4226.58,1913.69 4274.38,1902.99 4325.02,1872.69C4393.28,1831.87 4471.82,1752.57 4462.82,1604.04C4447.7,1354.59 4318.45,1253.21 4122.4,1206.89C4116.53,1205.5 4111.98,1204.5 4111.23,1204.33L4111.21,1204.32Z" style="fill:var(--ps-cup-rim);"/>
                </g>
                <g id="text-warp" transform="matrix(1,0,0,1,-5238.57,6.19977)">
                    <g transform="matrix(4.30607,0,0,4.30607,-21679.9,-7167.02)">
                        <g id="text-warp1" serif:id="text-warp">
                            <g transform="matrix(50,0,0,50,6393.58,2188.85)">
                                <path d="M0.255,-1.256L0.08,-1.086L-0.05,-0.983C-0.081,-0.969 -0.111,-0.971 -0.141,-0.985C-0.164,-0.996 -0.186,-1.013 -0.174,-1.041L-0.073,-1.159L0.689,-1.886L0.814,-1.984L0.919,-2.007L1.048,-1.979C1.118,-1.951 1.163,-1.903 1.155,-1.823C1.146,-1.724 1.051,-1.621 0.988,-1.56C0.876,-1.451 0.745,-1.351 0.6,-1.289C0.492,-1.243 0.37,-1.217 0.255,-1.256ZM0.505,-1.471C0.552,-1.451 0.604,-1.46 0.65,-1.477L0.795,-1.565L0.851,-1.652C0.856,-1.683 0.837,-1.701 0.811,-1.711L0.734,-1.72L0.487,-1.481L0.505,-1.471Z" style="fill:var(--ps-text-color);fill-rule:nonzero;stroke:var(--ps-puddle);stroke-width:0.04px;"/>
                            </g>
                            <g transform="matrix(50,0,0,50,6418.43,2188.85)">
                                <path d="M0.308,-0.9L0.248,-0.839L0.115,-0.726C0.082,-0.71 0.048,-0.71 0.013,-0.72L-0.227,-0.793C-0.249,-0.8 -0.278,-0.814 -0.269,-0.844L-0.173,-0.963L0.626,-1.764L0.751,-1.868C0.781,-1.883 0.811,-1.885 0.842,-1.873L0.864,-1.864C0.883,-1.857 0.911,-1.842 0.902,-1.815L0.811,-1.705L0.179,-1.093L0.352,-1.061C0.368,-1.059 0.41,-1.051 0.401,-1.02L0.308,-0.9Z" style="fill:var(--ps-text-color);fill-rule:nonzero;stroke:var(--ps-puddle);stroke-width:0.04px;"/>
                            </g>
                            <g transform="matrix(50,0,0,50,6440.88,2188.85)">
                                <path d="M0.691,-1.259L0.892,-1.475L1.005,-1.578L1.092,-1.58L1.1,-1.577C1.121,-1.569 1.142,-1.554 1.134,-1.528L1.056,-1.421L0.935,-1.292L0.593,-0.959L0.278,-0.698C0.198,-0.638 0.101,-0.576 0.007,-0.54C-0.048,-0.519 -0.124,-0.499 -0.182,-0.527C-0.26,-0.564 -0.219,-0.679 -0.197,-0.731C-0.141,-0.863 -0.04,-1.004 0.047,-1.113L0.454,-1.564L0.554,-1.66L0.639,-1.726L0.697,-1.721L0.779,-1.672C0.795,-1.662 0.811,-1.647 0.802,-1.626L0.724,-1.534L0.613,-1.425C0.577,-1.388 0.137,-0.945 0.222,-0.907C0.31,-0.868 0.658,-1.225 0.691,-1.259Z" style="fill:var(--ps-text-color);fill-rule:nonzero;stroke:var(--ps-puddle);stroke-width:0.04px;"/>
                            </g>
                            <g transform="matrix(50,0,0,50,6470.83,2188.85)">
                                <path d="M-0.421,-0.404L-0.458,-0.425L-0.471,-0.457L-0.429,-0.515L0.407,-1.416L0.511,-1.506L0.596,-1.519L0.672,-1.497C0.796,-1.448 0.874,-1.351 0.857,-1.215C0.852,-1.172 0.832,-1.01 0.595,-0.753L0.371,-0.556L0.113,-0.413C0.025,-0.376 -0.067,-0.355 -0.163,-0.352C-0.253,-0.349 -0.34,-0.365 -0.421,-0.404ZM0.044,-0.705C0.104,-0.679 0.165,-0.682 0.225,-0.702C0.302,-0.728 0.369,-0.784 0.423,-0.842C0.468,-0.889 0.522,-0.959 0.524,-1.03C0.526,-1.092 0.49,-1.13 0.437,-1.154L0.018,-0.721L0.044,-0.705Z" style="fill:var(--ps-text-color);fill-rule:nonzero;stroke:var(--ps-puddle);stroke-width:0.04px;"/>
                            </g>
                            <g transform="matrix(50,0,0,50,6501.13,2188.85)">
                                <path d="M-0.01,-0.539L0.114,-0.502L0.38,-0.892L-0.01,-0.539ZM0.735,-1.094L0.16,-0.175L0.051,-0.04C0.016,-0.013 -0.027,-0.003 -0.071,-0.002C-0.071,-0.002 -0.173,0.005 -0.18,-0.03L-0.118,-0.164L-0.051,-0.262L-0.245,-0.32L-0.333,-0.24L-0.473,-0.136C-0.506,-0.124 -0.532,-0.138 -0.552,-0.163L-0.57,-0.184C-0.59,-0.209 -0.599,-0.237 -0.583,-0.268L-0.464,-0.39L0.5,-1.199L0.64,-1.296C0.673,-1.309 0.706,-1.305 0.737,-1.291C0.761,-1.28 0.796,-1.26 0.796,-1.227L0.735,-1.094Z" style="fill:var(--ps-text-color);fill-rule:nonzero;stroke:var(--ps-puddle);stroke-width:0.04px;"/>
                            </g>
                            <g transform="matrix(50,0,0,50,6531.83,2188.85)">
                                <path d="M-0.429,-0.205L-0.319,-0.253L-0.284,-0.194C-0.278,-0.161 -0.262,-0.134 -0.23,-0.12C-0.19,-0.101 -0.146,-0.106 -0.106,-0.121C-0.055,-0.139 -0.012,-0.172 0.023,-0.213L0.049,-0.273L0.026,-0.327L-0.021,-0.379L-0.065,-0.444L-0.083,-0.529L-0.047,-0.645L0.063,-0.798L0.253,-0.962L0.446,-1.051L0.614,-1.075L0.747,-1.053L0.829,-1C0.85,-0.978 0.856,-0.953 0.843,-0.924L0.74,-0.812L0.704,-0.781L0.602,-0.712L0.55,-0.741L0.495,-0.785C0.456,-0.801 0.415,-0.798 0.376,-0.787L0.262,-0.712C0.243,-0.69 0.228,-0.663 0.244,-0.634L0.303,-0.56L0.372,-0.47C0.396,-0.424 0.381,-0.36 0.366,-0.317C0.338,-0.232 0.271,-0.143 0.216,-0.078C0.121,0.034 0.007,0.122 -0.131,0.174C-0.23,0.211 -0.35,0.236 -0.452,0.187C-0.537,0.147 -0.571,0.068 -0.566,-0.027L-0.533,-0.122L-0.429,-0.205Z" style="fill:var(--ps-text-color);fill-rule:nonzero;stroke:var(--ps-puddle);stroke-width:0.04px;"/>
                            </g>
                            <g transform="matrix(50,0,0,50,6558.83,2188.85)">
                                <path d="M0.411,-0.504L-0.283,0.291L-0.419,0.415C-0.453,0.431 -0.485,0.422 -0.513,0.4L-0.521,0.393C-0.548,0.373 -0.567,0.346 -0.556,0.311L-0.455,0.161L0.175,-0.579L0.106,-0.603C0.083,-0.611 0.054,-0.626 0.059,-0.657L0.136,-0.786L0.246,-0.901L0.343,-0.911L0.736,-0.808C0.761,-0.802 0.796,-0.788 0.79,-0.754L0.704,-0.617L0.577,-0.492C0.543,-0.473 0.507,-0.474 0.471,-0.486L0.411,-0.504Z" style="fill:var(--ps-text-color);fill-rule:nonzero;stroke:var(--ps-puddle);stroke-width:0.04px;"/>
                            </g>
                            <g transform="matrix(50,0,0,50,6582.28,2188.85)">
                                <path d="M0.398,-0.207L0.591,-0.466L0.703,-0.589C0.734,-0.607 0.768,-0.604 0.8,-0.591L0.81,-0.588C0.835,-0.578 0.86,-0.561 0.854,-0.53L0.783,-0.402L0.666,-0.248L0.331,0.152L0.015,0.466C-0.066,0.537 -0.166,0.612 -0.267,0.656C-0.33,0.684 -0.41,0.705 -0.477,0.673C-0.567,0.63 -0.541,0.499 -0.521,0.428C-0.511,0.389 -0.468,0.234 -0.302,-0.03C-0.274,-0.076 -0.141,-0.289 0.09,-0.569L0.187,-0.683L0.273,-0.763L0.338,-0.757L0.437,-0.699C0.456,-0.687 0.476,-0.669 0.47,-0.644L0.396,-0.535L0.288,-0.405C0.251,-0.36 -0.177,0.171 -0.077,0.215C0.027,0.261 0.367,-0.167 0.398,-0.207Z" style="fill:var(--ps-text-color);fill-rule:nonzero;stroke:var(--ps-puddle);stroke-width:0.04px;"/>
                            </g>
                            <g transform="matrix(50,0,0,50,6612.23,2188.85)">
                                <path d="M0.723,-0.169C0.459,0.197 0.196,0.563 -0.068,0.929L-0.149,1.019L-0.225,1.027L-0.275,0.99L-0.256,0.895L0.008,0.142L-0.366,0.706L-0.49,0.854C-0.525,0.879 -0.566,0.88 -0.606,0.87L-0.694,0.851C-0.719,0.845 -0.762,0.83 -0.757,0.793L-0.667,0.641C-0.39,0.28 -0.112,-0.08 0.166,-0.441L0.268,-0.546L0.354,-0.545C0.378,-0.536 0.404,-0.52 0.409,-0.492L0.392,-0.375L0.252,0.098L0.525,-0.314L0.634,-0.441C0.665,-0.459 0.696,-0.45 0.724,-0.432L0.765,-0.403C0.793,-0.385 0.815,-0.359 0.808,-0.322L0.723,-0.169Z" style="fill:var(--ps-text-color);fill-rule:nonzero;stroke:var(--ps-puddle);stroke-width:0.04px;"/>
                            </g>
                            <g transform="matrix(50,0,0,50,6641.63,2188.85)">
                                <path d="M-0.647,1.1L-0.693,1.073L-0.713,1.034L-0.674,0.961C-0.408,0.587 -0.142,0.212 0.124,-0.162L0.227,-0.275C0.256,-0.294 0.288,-0.298 0.322,-0.29L0.413,-0.264C0.566,-0.204 0.67,-0.085 0.675,0.083C0.683,0.348 0.494,0.621 0.466,0.661C0.398,0.759 0.323,0.826 0.234,0.903C0.152,0.975 0.062,1.036 -0.036,1.084C-0.133,1.131 -0.234,1.157 -0.342,1.162C-0.448,1.166 -0.55,1.146 -0.647,1.1ZM-0.165,0.721C-0.096,0.751 -0.027,0.75 0.042,0.723C0.126,0.69 0.193,0.62 0.244,0.548C0.291,0.483 0.336,0.399 0.327,0.314C0.319,0.239 0.271,0.191 0.205,0.161L-0.199,0.701L-0.165,0.721Z" style="fill:var(--ps-text-color);fill-rule:nonzero;stroke:var(--ps-puddle);stroke-width:0.04px;"/>
                            </g>
                        </g>
                    </g>
                </g>
            </g>
        </g>
    </g>
</svg>
